<svg xmlns="http://www.w3.org/2000/svg" width="300" height="85.518" viewBox="0 0 300 85.518">
  <g id="CTK-logo" transform="translate(2103 12.99)">
    <g id="Logo" transform="translate(-2103 -12.99)">
      <path id="Tracé_24" data-name="Tracé 24" d="M269.34,8.968h9.984V38.393h8.136V8.968h9.826V1.57H269.34Z" transform="translate(-169.961 -0.991)" fill="#fff"/>
      <path id="Tracé_25" data-name="Tracé 25" d="M394.468,1.567l-14.4,34.838-7.748-12.239a11.142,11.142,0,0,0,6.549-10.457A12.267,12.267,0,0,0,366.352,1.56H350.94V38.38h8.084V26.13h5.442l7.66,12.257h15.792l2.483-6.18h15.371l2.483,6.18h8.663L401.7,1.567Zm-29,17.379h-6.446V8.962h7.132a4.6,4.6,0,0,1,4.594,4.859C370.75,16.939,368.64,18.946,365.47,18.946Zm27.256,6.76,5.387-13.364,5.335,13.364Z" transform="translate(-221.453 -0.984)" fill="#fff"/>
      <path id="Tracé_26" data-name="Tracé 26" d="M567.916,1.57h-9.667L544.036,18V1.57H535.9V38.393h8.136V28.354l4.228-4.7,10.512,14.74h9.56l-14.526-20.5Z" transform="translate(-338.168 -0.991)" fill="#fff"/>
      <path id="Tracé_27" data-name="Tracé 27" d="M634.865,0C623.988,0,615.21,8.4,615.21,19.072s8.77,19.068,19.655,19.068,19.648-8.346,19.648-19.068S645.8,0,634.865,0Zm0,30.746a11.415,11.415,0,0,1-11.52-11.674,11.519,11.519,0,1,1,23.035,0A11.512,11.512,0,0,1,634.865,30.746Z" transform="translate(-388.215 0)" fill="#fff"/>
      <path id="Tracé_28" data-name="Tracé 28" d="M752.143,24.187a11.137,11.137,0,0,0,6.549-10.457A12.264,12.264,0,0,0,746.173,1.58H730.75V38.4h8.08V26.142h5.442l7.66,12.257h9.191Zm-6.867-5.228h-6.446V8.974h7.14a4.6,4.6,0,0,1,4.6,4.859C750.56,16.951,748.446,18.959,745.276,18.959Z" transform="translate(-461.124 -0.997)" fill="#fff"/>
      <path id="Tracé_29" data-name="Tracé 29" d="M19.81,30.588A11.4,11.4,0,0,1,8.136,19.017,11.45,11.45,0,0,1,19.81,7.379a12.486,12.486,0,0,1,8.97,3.771L32.942,5.07A19.445,19.445,0,0,0,19.81,0C8.874,0,0,8.029,0,19.017S8.874,37.982,19.81,37.982a19.478,19.478,0,0,0,13.135-5.059L28.78,26.839a12.482,12.482,0,0,1-8.97,3.749Z" transform="translate(0 0)" fill="#fff"/>
      <path id="Tracé_30" data-name="Tracé 30" d="M105.5,23.125h15.9V15.886H105.5V8.968h17.01V1.57H97.36V38.393h25.514V31H105.5Z" transform="translate(-61.437 -0.991)" fill="#fff"/>
      <path id="Tracé_31" data-name="Tracé 31" d="M199.6,24.446,181.956,1.57H174.72V38.393h7.87V14.883l18.223,23.511h6.656V1.57H199.6Z" transform="translate(-110.253 -0.991)" fill="#fff"/>
    </g>
    <g id="logo-subtitle" transform="translate(-2087.64 34.365)">
      <path id="Tracé_38" data-name="Tracé 38" d="M2516.23,49.129l.235-.124a14.574,14.574,0,0,0,4.208-3.843,22.153,22.153,0,0,1,2.4-2.573,1.19,1.19,0,0,0,.462-.876.577.577,0,0,0-.311-.455c-.028-.015-.058-.034-.1-.058a.985.985,0,0,0-1.429.083c-.569.684-1.159,1.372-1.728,2.038l-.017.02c-.559.653-1.137,1.328-1.7,2-.185.222-.364.45-.54.674-.313.4-.637.8-.984,1.18-.391.423-.877.95-.6,1.687Z" transform="translate(-2289.827 -37.244)" fill="#fff"/>
      <path id="Tracé_39" data-name="Tracé 39" d="M2929.948.592a.817.817,0,0,0-.494-.49.886.886,0,0,0-.746-.038,1.284,1.284,0,0,0-.548.9,2.151,2.151,0,0,1-.074.236,31.608,31.608,0,0,0-1.039,3.161l-.136.465a121.228,121.228,0,0,0-2.937,12.94c-.069.392-.161.8-.251,1.191a11.137,11.137,0,0,0-.4,3.291l.021.288.278-.078a.907.907,0,0,0,.7-.75l.028-.1c.667-2.132,1.162-4.339,1.644-6.483.3-1.331.607-2.705.957-4.057.232-.9.432-1.821.629-2.716a28.466,28.466,0,0,1,2-6.581c.021-.043.052-.09.09-.158A1.274,1.274,0,0,0,2929.948.592Z" transform="translate(-2660.461 0.002)" fill="#fff"/>
      <path id="Tracé_40" data-name="Tracé 40" d="M275.021,104.312a1.152,1.152,0,0,0,.411.085c.56,0,.777-.554.959-1.02.039-.1.077-.2.135-.339a2.616,2.616,0,0,1,.084-.281c.15-.444.4-1.189-.46-1.54a.9.9,0,0,0-.731-.026,1.437,1.437,0,0,0-.615.961c-.034.1-.066.205-.1.294-.029.068-.062.139-.1.211a1.439,1.439,0,0,0-.2,1.129A.971.971,0,0,0,275.021,104.312Z" transform="translate(-249.681 -92.032)" fill="#fff"/>
      <path id="Tracé_41" data-name="Tracé 41" d="M2908.891,282.762a1.41,1.41,0,0,0-1.518.264.767.767,0,0,0-.156.594,1.41,1.41,0,0,0,1.349,1.349h.034a1.134,1.134,0,0,0,.834-.371,1.218,1.218,0,0,0,.27-.946A1.106,1.106,0,0,0,2908.891,282.762Z" transform="translate(-2645.811 -257.244)" fill="#fff"/>
      <path id="Tracé_42" data-name="Tracé 42" d="M45.209,25.147a1.207,1.207,0,0,0-.337.033c-.053.01-.105.021-.153.026-.234.026-.509.054-.78.063a2.132,2.132,0,0,1-1.006-.139c-.57-.282-.691-1.058-.789-1.681l-.025-.158a4.291,4.291,0,0,1,.259-2.22,1.268,1.268,0,0,0-.532-1.734c-.686-.48-1.217.08-1.645.529-.05.053-.1.1-.147.152A17.931,17.931,0,0,0,37.841,22.8c-.121.18-.234.378-.343.564s-.218.374-.335.555c-.241.367-.52.719-.789,1.054l-.08.1c-.013.016-.064.061-.116.109,0-.112.013-.226.025-.343.011-.1.021-.2.024-.3a5.005,5.005,0,0,1,.126-.825c.064-.3.145-.605.222-.9s.155-.584.218-.878a34.375,34.375,0,0,0,.593-3.428c.019-.17.061-.36.1-.55.141-.64.334-1.518-.569-1.812-.923-.3-1.386.846-1.636,1.465l-.084.2a23.8,23.8,0,0,1-4.654,6.654,6.007,6.007,0,0,1-1.74,1.29c.034-.041.068-.083.1-.125,1.625-2.06,3.466-4.4,3.211-7.688a2.645,2.645,0,0,0-1.556-2.326c-.853-.414-1.533.36-2.03.924l-.033.038c-1.7,1.924-2.388,4.5-2.116,7.867a1.137,1.137,0,0,1-.472,1.195,1.811,1.811,0,0,1-1.608.206,1.613,1.613,0,0,1-.592-1.133,12.069,12.069,0,0,1,1.092-6.57,2.152,2.152,0,0,1,.105-.208c.152-.276.436-.791-.219-1.163-.616-.349-1.1-.2-1.537.465a8.468,8.468,0,0,1-2.248,2.1l-.168.123c.085-1.424.04-2.795-.689-3.4a2.208,2.208,0,0,0-1.91-.26,28.481,28.481,0,0,0,2.872-8.3,9.949,9.949,0,0,0,.147-4.874,1.473,1.473,0,0,0-.829-1.051,1.38,1.38,0,0,0-1.267.218,5.182,5.182,0,0,0-1.55,1.767l-.169.264c-4.215,6.494-6.139,12.255-6.06,18.131,0,.064.005.128.011.192a.556.556,0,0,1-.227.613A23.3,23.3,0,0,1,3.972,26.9c-.122.038-.253.085-.4.137a1.949,1.949,0,0,1-1.433.174,1.28,1.28,0,0,1-.554-.855.517.517,0,0,0-.27-.334.878.878,0,0,0-.666.005A1.017,1.017,0,0,0,0,27.047a2.039,2.039,0,0,0,.878,1.5,2.139,2.139,0,0,0,1.277.495A1.324,1.324,0,0,0,2.485,29a24.1,24.1,0,0,0,8.081-4.07A5.2,5.2,0,0,0,11,24.566a1.721,1.721,0,0,1,.384-.3c.006,0,.145.069.318.914a3.244,3.244,0,0,0,1.6,2.508,3.385,3.385,0,0,0,3.057-.477,8.3,8.3,0,0,0,3.085-3.831,7.39,7.39,0,0,1,3.021-3.221,11.476,11.476,0,0,0-.682,3.724c.059,1.61.45,2.661,1.206,3.21a2.943,2.943,0,0,0,2.068.45,5.707,5.707,0,0,0,1.035-.2,1.894,1.894,0,0,0,.217-.09c.121-.056.4-.187.465-.142,1.789,1.3,3.047.124,4.158-.916a27.479,27.479,0,0,0,3.216-3.841c.389-.525.789-1.065,1.209-1.6-.069.59-.19,1.157-.316,1.752l-.031.146A20.257,20.257,0,0,0,34.64,25a12.347,12.347,0,0,0-.062,1.7l0,.1c.018.45.04,1.013.612,1.146.6.141,1.127-.36,1.475-.692a6.77,6.77,0,0,0,1.059-1.345q.218-.345.441-.688c.164-.254.327-.506.49-.769a22.722,22.722,0,0,1,1.678-2.447c-.009.219-.022.432-.035.638a8.585,8.585,0,0,0,.012,1.8,2.862,2.862,0,0,0,2.269,2.607,2.62,2.62,0,0,0,2-.481,3.308,3.308,0,0,0,.75-.74c.132-.18.27-.369.2-.525C45.487,25.217,45.382,25.164,45.209,25.147Zm-14.646-5.8a11.983,11.983,0,0,1-2.449,4.932c-.107.147-.163.2-.2.217.033-.386.058-.762.084-1.13v-.026a16.7,16.7,0,0,1,.549-3.443l.013-.05c.062-.219.165-.586.312-.969.245-.642.629-1.364,1.113-1.364a.509.509,0,0,1,.16.026C30.6,17.691,30.7,18.585,30.563,19.35ZM16.607,24.914h0a5.722,5.722,0,0,1-.73.691A1.656,1.656,0,0,1,14.4,26a1.492,1.492,0,0,1-.935-1.049c-.392-1.189-.582-1.963.42-2.864a12.621,12.621,0,0,0,1.888-2.358c.157-.235.316-.466.478-.7l.518-.781v.036c-.035,1.4.066,2.829,1.67,3.591-.007.023-.015.046-.018.052L18.387,22a.77.77,0,0,0-.11.18c-.051.128-.109.258-.17.392a10.979,10.979,0,0,1-1.387,2.221C16.676,24.834,16.643,24.874,16.607,24.914Zm-.345-8.5a18.753,18.753,0,0,1-3.339,4.567,25.105,25.105,0,0,1,1.632-8.3,35.122,35.122,0,0,1,4.482-8.689L19.1,3.9c.037-.057.075-.111.112-.164l.013-.021.044-.058a.353.353,0,0,1,.022-.029c.012-.015.023-.029.036-.043l.032-.036.026-.027.043-.04.017-.013a.45.45,0,0,1,.053-.035l.013,0a.191.191,0,0,1,.056-.018h.01a.151.151,0,0,1,.06,0c.21.063.235.23.2.711,0,.067-.009.131-.011.193q-.037,1.163-.184,2.318a26.408,26.408,0,0,1-3.382,9.777Zm3.127,1.868a2.8,2.8,0,0,1-.27,1.2c-.006.015-.03.054-.058.105-.08.139-.136.24-.172.316a1.647,1.647,0,0,1-.24-2.146.43.43,0,0,1,.306-.147h.029a.263.263,0,0,1,.2.07A.875.875,0,0,1,19.389,18.284Z" transform="translate(0.001 -1.367)" fill="#fff"/>
      <path id="Tracé_43" data-name="Tracé 43" d="M1059.535,166.1a3.223,3.223,0,0,0-1.239.544l-.187.114c-.212.128-.42.263-.63.4a10.25,10.25,0,0,1-1.276.744,4.866,4.866,0,0,1-3.221.295,1.473,1.473,0,0,1-1.055-.693c-.284-.6.18-1.27.6-1.86l.054-.077a7.422,7.422,0,0,0,1.3-3.534c.075-.789-.1-1.732-.828-2.017a1.809,1.809,0,0,0-1.708.491,5.48,5.48,0,0,0-1.918,4.243c0,.1.007.209.012.316a2.2,2.2,0,0,1-.29,1.564,1.021,1.021,0,0,1-.95.322,1.651,1.651,0,0,1-1.241-.89,3.763,3.763,0,0,1,.155-2.727l.1-.292a5.426,5.426,0,0,0,.468-2.531,1.353,1.353,0,0,0-.51-.9.63.63,0,0,0-.517-.1c-.437.111-.587.609-.674,1.079a12.857,12.857,0,0,1-4.29,7.369c-.2.165-.487.374-.745.278-.193-.072-.317-.293-.379-.676a11.5,11.5,0,0,1,1.323-6.641l.014-.03a2.92,2.92,0,0,0,.391-1.514,1.206,1.206,0,0,0-.511-.836.785.785,0,0,0-.662-.117,1.371,1.371,0,0,0-.751.8c-.313.645-.574,1.324-.826,1.978s-.519,1.349-.835,2a12.286,12.286,0,0,1-5.054,5.3,43.143,43.143,0,0,1,1.812-7.876,2.714,2.714,0,0,0,.157-1.853,1.115,1.115,0,0,0-.937-.629.678.678,0,0,0-.67.338,1.4,1.4,0,0,0-.135.521.784.784,0,0,1-.2.546c-.249.2-.62,0-.946-.172l-.062-.033a3.557,3.557,0,0,0-3.273.123,6.078,6.078,0,0,0-2.316,2.39,9.813,9.813,0,0,0-1.234,6.294,4.422,4.422,0,0,0,.707,2.011,2.217,2.217,0,0,0,1.859.989,3.42,3.42,0,0,0,1.733-.809,4.689,4.689,0,0,1,1.212-.709l-1.475,10.829c-.073.53-.1,1.178.369,1.492a.773.773,0,0,0,.437.13,1.021,1.021,0,0,0,.191-.02,1.22,1.22,0,0,0,.75-.519,2.933,2.933,0,0,0,.332-1.454c.134-2.584.393-5.193.769-7.755a3.047,3.047,0,0,1,.319-1.124,3.154,3.154,0,0,1,1.035-.928l.041-.028a31.347,31.347,0,0,0,4.475-3.613,2.986,2.986,0,0,1,.309,1.259,3.131,3.131,0,0,0,.359,1.384,2.085,2.085,0,0,0,2.377.679,4.769,4.769,0,0,0,2.026-1.569c.112-.134.224-.27.335-.406a8.728,8.728,0,0,1,1.272-1.349,2.9,2.9,0,0,0,4.76,1.551,3.633,3.633,0,0,0,2.885,1.812,7.446,7.446,0,0,0,3.531-.651,7.164,7.164,0,0,0,3.116-2.056c.249-.309.53-.7.5-.952a.257.257,0,0,0-.1-.18A.57.57,0,0,0,1059.535,166.1Zm-7.417-3.855a5.479,5.479,0,0,1-.845,2.326A4.742,4.742,0,0,1,1052.118,162.241Zm-20.617-1.3a1.216,1.216,0,0,1,.866.211c.242.227.343.731.36,1.8a7.774,7.774,0,0,1-1.572,3.715l-.07.106a9.59,9.59,0,0,1-2.169,2.536.923.923,0,0,1-.546.166c-.539-.055-1.128-.84-.869-4.273v-.04a4.483,4.483,0,0,1,1.305-2.687,4.07,4.07,0,0,1,2.349-1.524C1031.284,160.947,1031.4,160.944,1031.5,160.944Z" transform="translate(-933.523 -143.917)" fill="#fff"/>
      <path id="Tracé_44" data-name="Tracé 44" d="M1854.72,78.3h0a1.689,1.689,0,0,0-.5.262,4.093,4.093,0,0,0-.522.471,4.139,4.139,0,0,1-.467.428c-1.579,1.175-2.873,1.627-3.848,1.34a3.043,3.043,0,0,1-1.8-1.807,4.067,4.067,0,0,1,.077-4,1.535,1.535,0,0,0-.037-2,.779.779,0,0,0-1.143,0,2.29,2.29,0,0,1-.2.129,1.929,1.929,0,0,0-.833-1.407,2.451,2.451,0,0,0-2.248,0c-2.227.888-2.993,2.7-3.491,4.523a8.019,8.019,0,0,1-3.578,4.439c-.116.081-.31.217-.427.187-.09-.022-.142-.135-.19-.236l-.032-.065c-.437-.829-.85-1.612-.189-2.441l.387-.484a25.059,25.059,0,0,0,4.119-6.4,17.674,17.674,0,0,0,1.331-8.3,1.583,1.583,0,0,0-.816-1.412,1.849,1.849,0,0,0-1.806.327,7.473,7.473,0,0,0-2.685,3.873l-.122.33c-1.181,3.212-2.4,6.533-2.517,10.124v.262a2,2,0,0,1-.7,1.872l-.164.108a20.812,20.812,0,0,1-3.693,2.106c-1.949.791-2.419.719-3.859-.608a.894.894,0,0,0-1.592.477,1.531,1.531,0,0,0,.848,1.778,5.887,5.887,0,0,0,4.351.316,11.734,11.734,0,0,0,4.12-2.029c.258-.172.515-.344.775-.512l.049.173c.09.323.191.655.3.979.316.92.674,1.423,1.162,1.635a1.388,1.388,0,0,0,.559.11,3.093,3.093,0,0,0,1.238-.326,6.792,6.792,0,0,0,2.538-1.858q.325-.4.656-.795c.023-.029.044-.059.065-.09l.015-.022c.014.02.03.04.047.064l.019.024c.072.111.145.22.218.331a2.059,2.059,0,0,0,.794.744,2.509,2.509,0,0,0,2.673-.509,13.107,13.107,0,0,0,1-.851l.09-.08c.043-.038.14-.12.254-.217.222-.188.409-.348.523-.45.981,2.755,1.974,3.737,3.818,3.737.08,0,.162,0,.245-.005a6.591,6.591,0,0,0,4.5-2.087c.077-.08.158-.161.24-.244a5.438,5.438,0,0,0,1.073-1.326.45.45,0,0,0,.035-.42A.544.544,0,0,0,1854.72,78.3Zm-9.476-2.557a2.814,2.814,0,0,1-.483,1.259,7.638,7.638,0,0,1-.607.657l-.158.16a10.677,10.677,0,0,1-1.169.983l-.31.238c-.383.3-.567.334-.655.309-.145-.037-.279-.314-.4-.608a4.364,4.364,0,0,1,.485-2.958c.291-.643,1.349-2.428,2.192-2.5h.051a.682.682,0,0,1,.564.36A3.008,3.008,0,0,1,1845.244,75.746Zm-10.25-.12c.11-3.427,2.448-10.009,4.245-11.948.985,2.641-1.4,9.346-4.248,11.948Zm-1.585,4.491Z" transform="translate(-1659.203 -55.907)" fill="#fff"/>
      <path id="Tracé_45" data-name="Tracé 45" d="M2290.422,80.116c-.441-.171-1.187.458-1.4.731a2.605,2.605,0,0,1-.2.236,15.923,15.923,0,0,1-7.132,4.745,2.719,2.719,0,0,1-.645.12,1.49,1.49,0,0,1-.384.031,6.279,6.279,0,0,0,.041-1.482v-.038a9.387,9.387,0,0,0-.315-2.423,3.279,3.279,0,0,0-2.139-2.39,2.418,2.418,0,0,0-2.82,1.039l-.279.388a14,14,0,0,0-2.436,4.424c-.481,1.779-1.651,2.943-3.794,3.776a1.833,1.833,0,0,1-1.54-.234,1.238,1.238,0,0,1-.58-.525,4.345,4.345,0,0,1-.146-2.106,10.485,10.485,0,0,1,1.112-3.789c.5-.947,1.2-2.022,2.206-1.938.084.007.172.018.26.029a1.7,1.7,0,0,0,1.139-.118.737.737,0,0,0,.378-.671.968.968,0,0,0-.55-.784,2.7,2.7,0,0,0-2.24.129A7.155,7.155,0,0,0,2266,82.611a9.31,9.31,0,0,0-.959,3,11.04,11.04,0,0,0,.017,2.554c.013.158.027.319.041.485.028.365.031.4-.227.591-.159.117-.321.241-.483.368a6.43,6.43,0,0,1-1.628,1.023,6.908,6.908,0,0,1-1.983.392.862.862,0,0,1-.925-.492c-.276-.6.029-1.128.393-1.659a12.286,12.286,0,0,0,2.4-5.925l.018-.206c.063-.688.158-1.727-.871-2a1.991,1.991,0,0,0-2.205,1.266,13.167,13.167,0,0,0-1.708,6.46,2.8,2.8,0,0,1-1.5,2.068,2.021,2.021,0,0,1-1.854.316,3.952,3.952,0,0,1-1.1-2.126,4.03,4.03,0,0,1-.09-2.474,30.28,30.28,0,0,0,3.083-6.547c.074-.225.15-.45.226-.674l.01-.032a12.553,12.553,0,0,0,.972-5.48l-.007-.06c-.046-.414-.1-.929-.63-1.1a1.212,1.212,0,0,0-1.446.373c-.089.12-.188.237-.291.36a5.434,5.434,0,0,0-.425.539,22.484,22.484,0,0,0-2.409,5.575l-.1.3c-.066.2-.167.477-.269.521-.047.02-.158.015-.423-.12a3.069,3.069,0,0,0-2.8.076,7.9,7.9,0,0,0-3.988,4.8,4.741,4.741,0,0,1-1.543,2.182l-.18.137a15.037,15.037,0,0,1-5.226,2.945,2.483,2.483,0,0,1-1.61-.105.675.675,0,0,1-.141-.141.707.707,0,0,0-.489-.314.678.678,0,0,0-.52.252,1.394,1.394,0,0,0-.459,1.38c.143.629.668.719,1.051.78a8.277,8.277,0,0,0,5.077-1.053,10.227,10.227,0,0,0,1.825-1.235,12.012,12.012,0,0,1,1.586-1.114v.04a3.783,3.783,0,0,0,.022.655,3.072,3.072,0,0,0,1.287,2.369,2.874,2.874,0,0,0,2.531-.071,7.852,7.852,0,0,0,2.548-1.868l.122-.119c.228-.22.478-.43.725-.638l.1-.081a8.559,8.559,0,0,1,.294.989,3.828,3.828,0,0,0,2.036,2.9,2.526,2.526,0,0,0,.923.168,4.752,4.752,0,0,0,2.565-.925c.061-.04.122-.082.18-.123.249-.173.505-.35.673-.306.09.024.228.131.391.5a1.518,1.518,0,0,0,1.378.83,7.689,7.689,0,0,0,5.26-1.838c.068-.054.13-.105.189-.153.486-.395.63-.512,1.147-.172a2.992,2.992,0,0,0,2.417.372,7.51,7.51,0,0,0,3.432-1.908c.036.1.07.209.105.31l.012.034a11.768,11.768,0,0,0,.527,1.384,2.922,2.922,0,0,0,2.013,1.79,3.045,3.045,0,0,0,2.619-1,8.374,8.374,0,0,0,1.963-2.888c.03-.07.057-.147.085-.227.144-.407.222-.561.466-.561a5.44,5.44,0,0,0,1.972-.45l.024-.009c.18-.068.36-.136.539-.2a14.608,14.608,0,0,0,5.72-3.547l.216-.215a10.677,10.677,0,0,0,1.717-2.017c.18-.3.513-.855.27-1.21a.547.547,0,0,0-.261-.2Zm-12.614,7.76h0c.39.169.433.256.438.27.009.03-.015.115-.18.36l-.022.035c-.347.577-1.581,2.428-2.841,2.073-.163-.047-.354-.27-.524-.618a4.959,4.959,0,0,1,0-4.39l.021-.044a4.091,4.091,0,0,0,2.5,2.084C2277.409,87.72,2277.609,87.791,2277.808,87.876Zm-1.482-3.147a2.557,2.557,0,0,1-.025-1.888c.253-.719.551-1.079.888-1.079a.44.44,0,0,1,.09.009c1.014.187,1.5,1.529,1.624,1.935a5.524,5.524,0,0,1,.22,2.218.282.282,0,0,1-.149.187c-.27.136-.8-.064-.989-.139a2.616,2.616,0,0,1-1.658-1.24Zm-16.8,2.383a9.965,9.965,0,0,1,1.763-4.756c.192,1.766-1.317,4.247-1.763,4.759Zm-5.853-5.355a21.122,21.122,0,0,1,2.118-6.28,22.563,22.563,0,0,1-2.118,6.283Zm-3.617-.2h.044a1.5,1.5,0,0,1,.251.02c.519.09.593.461.671.854.016.079.031.152.049.215a9.8,9.8,0,0,1-2.666,6.474c-.668.687-1.25,1.033-1.916.491-.487-.4-.5-1.021-.512-1.743v-.149a8.584,8.584,0,0,1,1.618-3.672c.957-1.45,1.973-2.475,2.462-2.486Z" transform="translate(-2033.715 -65.768)" fill="#fff"/>
      <path id="Tracé_46" data-name="Tracé 46" d="M1483.7,101.887c-.431-.147-.809.406-.957.614l-.034.049a7.229,7.229,0,0,1-3.423,2.329,2.687,2.687,0,0,1-2.711-.726,3.7,3.7,0,0,1-.941-2.033,12.732,12.732,0,0,0,1.331-1.6,14.144,14.144,0,0,0,1.052-1.743c.643-1.381.6-2.5-.128-3.312-.527-.592-1.278.037-1.682.374l-.03.024a7.274,7.274,0,0,0-2.2,5.336c-.006.209-.36.562-.573.773l-.18.18a6.745,6.745,0,0,1-1.676,1.481c-.423.239-.7.328-.809.27-.081-.043-.189-.222-.24-.83a6.816,6.816,0,0,1,.678-3.187,28.244,28.244,0,0,0,2.381-10.364c0-.056,0-.113.006-.193.021-.45.051-1.128-.629-1.285s-.989.412-1.208.839c-.039.073-.077.146-.116.215a9.312,9.312,0,0,0-.955,3.242c-.09.521-.18,1.059-.308,1.591-.189.77-.384,1.564-.629,2.367l-.074-.138a3.045,3.045,0,0,0-1.746-1.358,2.194,2.194,0,0,0-1.743.459,8.977,8.977,0,0,0-3.122,4.423,3.564,3.564,0,0,0-.171.58,1.467,1.467,0,0,1-.408.867,16.3,16.3,0,0,1-5.645,3.237c-.144.041-.315.073-.482.1a1.735,1.735,0,0,0-1.169.511.828.828,0,0,0-.108.641.864.864,0,0,0,.444.629c.75.408,2.132-.115,2.4-.225a15.637,15.637,0,0,0,4.561-2.7v.033a3.41,3.41,0,0,0,.046.943c.325,1.341.8,2.116,1.5,2.438a1.832,1.832,0,0,0,.764.159,3.8,3.8,0,0,0,1.708-.5,4.406,4.406,0,0,0,1.229-1.1c.172-.2.35-.4.535-.577.081-.078.162-.173.234-.256a1.433,1.433,0,0,1,.279-.281,1.279,1.279,0,0,1,.234.551,1.561,1.561,0,0,0,.837,1.09,2.266,2.266,0,0,0,1.9-.225,9.5,9.5,0,0,0,2.4-1.881,4.3,4.3,0,0,0,5.09,2.916,5.925,5.925,0,0,0,3.21-1.633,8.82,8.82,0,0,0,1.308-1.68,1.528,1.528,0,0,0,.293-1.123A.513.513,0,0,0,1483.7,101.887Zm-6.359-4.957c.166.809-.45,2.024-1.7,3.351a1.72,1.72,0,0,1-.09-.344c-.022-1.164,1.032-2.325,1.793-3.007Zm-12.753,7.849a3.386,3.386,0,0,1-.31-2.138,10.55,10.55,0,0,1,1.508-4.226,5.315,5.315,0,0,1,1.151-1.429,1.425,1.425,0,0,1,.757-.36.427.427,0,0,1,.157.029c.617.237.651,1.546.667,2.174a1.791,1.791,0,0,0,.006.192,9.362,9.362,0,0,1-.118,2.306c-.019.09-.04.174-.065.257a7.389,7.389,0,0,1-2.883,3.381C1465.127,105.187,1464.891,105.137,1464.592,104.78Z" transform="translate(-1324.206 -80.108)" fill="#fff"/>
      <path id="Tracé_47" data-name="Tracé 47" d="M595.214,68.512h-.032a2.338,2.338,0,0,0-1.385.706,5.749,5.749,0,0,0-.876,1.359c-.059.113-.118.227-.18.339a11.521,11.521,0,0,1-3.017,3.582c-.212.166-.489.347-.738.26-.207-.072-.342-.308-.4-.7a5.632,5.632,0,0,1,.742-3.686l.037-.061a1.426,1.426,0,0,0,.29-.794.719.719,0,0,0-.48-.629,1.211,1.211,0,0,0-1.217.186,2.975,2.975,0,0,0-.737,1.609c-.019.082-.038.162-.057.242a8.632,8.632,0,0,1-2.928,4.61c-.249.2-.607.366-.8.17a.631.631,0,0,1-.124-.388,13.236,13.236,0,0,1,.771-5.844,2.326,2.326,0,0,0,.12-1.564.7.7,0,0,0-.418-.379.958.958,0,0,0-1.044.421,2.7,2.7,0,0,0-.36.965l-.022.09a12.749,12.749,0,0,1-3.722,6.369c-.206.19-.5.387-.719.259a.7.7,0,0,1-.246-.39,6.125,6.125,0,0,1-.488-3.866,6.339,6.339,0,0,1,1.9-2.507c.235-.222.477-.45.7-.685a10.7,10.7,0,0,0,2.619-9.848,3.516,3.516,0,0,0-.789-1.618,1.547,1.547,0,0,0-1.718-.394,2.192,2.192,0,0,0-.852.963,27.317,27.317,0,0,0-2.976,9.632l-.01.069c-.04.27-.08.557-.137.83l-.012.058c-.084.406-.164.789-.215,1.2-.111.055-.428.2-.751.327a6.588,6.588,0,0,1-.989.311l-.278.074a3.025,3.025,0,0,0-4.479-3.519,2.5,2.5,0,0,0,.315-1.1,1.123,1.123,0,0,0-.9-1.157c-.558-.052-1.036.423-1.394,1.412a26.9,26.9,0,0,1-6.753,10.322l-.029.027a2.771,2.771,0,0,0-.769.989.987.987,0,0,0,.373,1.215c.4.2.888.027,1.452-.51a32.349,32.349,0,0,0,4.417-5.2c-1.025,4.962-1.938,10.011-2.714,15.016a2.619,2.619,0,0,0,.019,1.269,1.01,1.01,0,0,0,.876.689.711.711,0,0,0,.18-.023c.54-.14.694-.785.765-1.259l1.131-7.553.023.027a1,1,0,0,0,.786.294,2.023,2.023,0,0,0,1.128-.634,18.238,18.238,0,0,0,3.814-5.005c.262-.5.521-1.064.815-1.761a8.527,8.527,0,0,0,.29-.822c.041-.135.111-.45.128-.534a1.776,1.776,0,0,1,.3-.113l.039-.013c.263-.09.575-.2.892-.288.151-.04.3-.071.456-.1.118-.024.239-.049.36-.077a10.931,10.931,0,0,0,.779,4.822,2.12,2.12,0,0,0,1.006,1.249,1.917,1.917,0,0,0,1.505-.136,6.563,6.563,0,0,0,2.953-2.451,4.656,4.656,0,0,0,.36,1.687,1.861,1.861,0,0,0,1.608,1.121,2.255,2.255,0,0,0,1.026-.347,7.474,7.474,0,0,0,2.5-2.285,2.356,2.356,0,0,0,3.983.725,2.036,2.036,0,0,0,.768,1.832,1.515,1.515,0,0,0,1.686-.291,3.825,3.825,0,0,0,.905-1.488,22.743,22.743,0,0,0,1.343-4.941c.013-.09.039-.2.067-.337.129-.611.324-1.529-.041-1.859A.641.641,0,0,0,595.214,68.512Zm-2.321,6.5c-.085.3-.18.635-.466.719-.035.011-.055.011-.052.014a.548.548,0,0,1-.058-.234,1.378,1.378,0,0,0-.27-.6c-.226-.332-.28-.437-.028-.64a7.908,7.908,0,0,0,1.231-1.349c.068-.09.138-.18.209-.27C593.288,73.434,593.116,74.228,592.892,75.013Zm-14.55-11.46c.129-.539.262-1.067.4-1.574.054-.193.108-.394.163-.6.1-.376.208-.767.326-1.157.1-.291.194-.567.3-.834a8.4,8.4,0,0,1,.379-.856,4.805,4.805,0,0,1,.386-.615,1.16,1.16,0,0,1,.137-.153.392.392,0,0,1,.106-.073.235.235,0,0,1,.09-.019.168.168,0,0,1,.063.017c.233.139.33.922.367,1.229.006.055.013.1.017.138a10.918,10.918,0,0,1,.1,1.213v.138a11.974,11.974,0,0,1-.1,1.763.623.623,0,0,1-.013.09c-.017.12-.038.236-.059.352a8.4,8.4,0,0,1-.216.9c-.068.229-.148.45-.236.677-.01.025-.02.05-.031.076-.052.129-.112.255-.17.381a8.512,8.512,0,0,1-.991,1.6,8.946,8.946,0,0,1-.989,1.058c-.041.038-.126.106-.23.191-.294.239-.515.424-.664.568.044-.258.085-.528.124-.792.045-.3.09-.6.138-.867.033-.187.069-.36.1-.545C577.989,65.171,578.154,64.38,578.342,63.552ZM570.57,74.308c-.06.1-.107.17-.133.216-.124.215-.254.421-.386.624-.229.326-.482.665-.77,1.028l-.189.238-.149.189c-.109.129-.218.26-.329.388l-.1.113c-.142.165-.289.333-.441.486.025-.1.06-.191.1-.284l.036-.1c.123-.343.251-.682.381-1.022a12.814,12.814,0,0,1,.763-1.677c.139-.25.288-.485.443-.709a7.18,7.18,0,0,1,.638-.8c.072-.076.145-.152.218-.227l.121-.125a2.066,2.066,0,0,1,.211-.192.511.511,0,0,1,.122-.069l.036-.011a.243.243,0,0,1,.064-.015.32.32,0,0,1,.186.073l.01.01a1.56,1.56,0,0,1-.172.719A12.477,12.477,0,0,1,570.57,74.308Zm-.148-3.408a5.665,5.665,0,0,0-.857.62,7.264,7.264,0,0,0-1.323,1.572c-.162.253-.321.523-.485.828q-.113.209-.219.419c.022-.236.041-.469.06-.7.152-1.859.426-3.794,1.923-5.233a2.569,2.569,0,0,1,1.749-.745.733.733,0,0,1,.692.423,2.392,2.392,0,0,1,.227,1.259v.109c0,.221-.005.809-.207.851-.152.032-.3.067-.449.1A4.206,4.206,0,0,0,570.422,70.9Z" transform="translate(-509.281 -51.144)" fill="#fff"/>
    </g>
  </g>
</svg>
